<svg width="164" height="164" viewBox="0 0 164 164" fill="none" xmlns="http://www.w3.org/2000/svg">
<circle cx="82" cy="82" r="82" fill="white"/>
<path fill-rule="evenodd" clip-rule="evenodd" d="M71.8818 69.3714C74.9208 70.7361 78.2822 71.5006 81.8222 71.5006C85.3621 71.5006 88.7235 70.7361 91.7625 69.3714C92.6552 60.7475 98.0156 52.9596 106.196 49.3058C106.281 48.4654 106.325 47.6132 106.325 46.7501C106.325 33.081 95.3547 22 81.8222 22C68.2896 22 57.3188 33.081 57.3188 46.7501C57.3188 47.6132 57.3634 48.4654 57.4488 49.3058C65.6287 52.9596 70.9891 60.7475 71.8818 69.3714Z" fill="#E44746"/>
<path fill-rule="evenodd" clip-rule="evenodd" d="M65.7372 88.4706C67.9611 85.9729 69.7193 82.9798 70.8134 79.5792C71.9075 76.1779 72.2267 72.713 71.8806 69.3719C64.0364 65.8493 58.3605 58.2929 57.4475 49.306C56.6829 48.9643 55.8944 48.6582 55.0819 48.3916C42.2115 44.1674 28.3876 51.282 24.206 64.2823C20.0239 77.2827 27.0675 91.2457 39.9379 95.47C40.7504 95.7366 41.5665 95.9575 42.3838 96.1348C48.352 89.4065 57.3411 86.663 65.7372 88.4706Z" fill="#008FFA"/>
<path fill-rule="evenodd" clip-rule="evenodd" d="M71.8812 69.3702C70.9885 60.7469 65.6279 52.9593 57.4478 49.3058C58.3604 58.2921 64.0364 65.8479 71.8812 69.3702Z" fill="#E44746"/>
<path fill-rule="evenodd" clip-rule="evenodd" d="M71.8812 69.3702C70.9885 60.7469 65.6279 52.9593 57.4478 49.3058C58.3604 58.2921 64.0364 65.8479 71.8812 69.3702Z" fill="#008FFA"/>
<path fill-rule="evenodd" clip-rule="evenodd" d="M81.8212 100.273C80.1568 97.3653 77.8821 94.7508 75.0181 92.6492C72.154 90.5475 68.9899 89.1702 65.7374 88.47C59.9968 94.9174 51.1281 98.0346 42.3842 96.1341C41.8261 96.7636 41.2945 97.4266 40.7924 98.125C32.8378 109.183 35.2652 124.661 46.2128 132.696C57.1614 140.73 72.4849 138.279 80.4388 127.22C80.941 126.522 81.4011 125.806 81.8212 125.076C77.3303 117.263 77.5247 107.78 81.8212 100.273Z" fill="#8C69CA"/>
<path fill-rule="evenodd" clip-rule="evenodd" d="M65.7371 88.4697C57.3411 86.6625 48.352 89.4055 42.3838 96.1326C51.1277 98.0328 59.9964 94.9162 65.7371 88.4697Z" fill="#008FFA"/>
<path fill-rule="evenodd" clip-rule="evenodd" d="M65.7371 88.4697C57.3411 86.6625 48.352 89.4055 42.3838 96.1326C51.1277 98.0328 59.9964 94.9162 65.7371 88.4697Z" fill="#8C69CA"/>
<path fill-rule="evenodd" clip-rule="evenodd" d="M97.904 88.4698C94.6516 89.17 91.4871 90.5474 88.6234 92.649C85.7593 94.7511 83.4846 97.3652 81.8203 100.273C86.1164 107.78 86.3112 117.263 81.8203 125.076C82.24 125.806 82.7002 126.522 83.2023 127.22C91.1565 138.279 106.48 140.73 117.428 132.696C128.376 124.661 130.803 109.183 122.849 98.1248C122.347 97.4265 121.815 96.7635 121.257 96.134C112.513 98.0345 103.645 94.9173 97.904 88.4698Z" fill="#63C355"/>
<path fill-rule="evenodd" clip-rule="evenodd" d="M81.82 100.273C77.5236 107.78 77.3293 117.263 81.82 125.076C86.3107 117.263 86.1163 107.78 81.82 100.273Z" fill="#8C69CA"/>
<path fill-rule="evenodd" clip-rule="evenodd" d="M81.82 100.273C77.5236 107.78 77.3293 117.263 81.82 125.076C86.3107 117.263 86.1163 107.78 81.82 100.273Z" fill="#63C355"/>
<path fill-rule="evenodd" clip-rule="evenodd" d="M139.436 64.2825C135.254 51.2821 121.43 44.1675 108.56 48.3917C107.748 48.658 106.959 48.9644 106.194 49.3061C105.281 58.293 99.6055 65.8494 91.7609 69.372C91.4152 72.7131 91.7343 76.178 92.8284 79.5793C93.9222 82.9799 95.6808 85.973 97.9047 88.4707C106.3 86.6631 115.29 89.4063 121.258 96.135C122.075 95.9576 122.892 95.7367 123.704 95.4701C136.574 91.2458 143.618 77.2828 139.436 64.2825Z" fill="#FF9900"/>
<path fill-rule="evenodd" clip-rule="evenodd" d="M91.7612 69.3702C99.6056 65.8479 105.281 58.2921 106.194 49.3058C98.0142 52.9593 92.6539 60.7469 91.7612 69.3702Z" fill="#E44746"/>
<path fill-rule="evenodd" clip-rule="evenodd" d="M91.7612 69.3702C99.6056 65.8479 105.281 58.2921 106.194 49.3058C98.0142 52.9593 92.6539 60.7469 91.7612 69.3702Z" fill="#FF9900"/>
<path fill-rule="evenodd" clip-rule="evenodd" d="M97.9053 88.4697C103.646 94.9162 112.515 98.0328 121.259 96.1326C115.29 89.4055 106.301 86.6625 97.9053 88.4697Z" fill="#FF9900"/>
<path fill-rule="evenodd" clip-rule="evenodd" d="M97.9053 88.4697C103.646 94.9162 112.515 98.0328 121.259 96.1326C115.29 89.4055 106.301 86.6625 97.9053 88.4697Z" fill="#FF9900"/>
<path fill-rule="evenodd" clip-rule="evenodd" d="M56.3833 85.4322C57.7988 99.1949 69.991 109.193 83.616 107.763C97.2407 106.333 107.139 94.0176 105.723 80.2552C104.308 66.4924 92.1155 56.4947 78.4905 57.9241C64.8658 59.3539 54.9678 71.6694 56.3833 85.4322Z" fill="#008FFA"/>
<path fill-rule="evenodd" clip-rule="evenodd" d="M94.2354 105.726C91.1014 108.315 87.6458 110.47 83.957 112.136C80.3722 113.597 76.5377 114.317 72.6767 114.256C69.2022 114.329 65.7624 113.539 62.6557 111.954C59.9098 110.552 57.6042 108.394 56.0006 105.726C54.4566 103.16 53.6467 100.206 53.6622 97.197C53.6 93.3377 54.9775 89.5977 57.5165 86.7315C60.3037 83.6694 63.9755 81.5893 68.0003 80.7921L75.0151 79.301C78.7498 78.5332 81.9441 77.8271 84.5994 77.1815C87.2548 76.536 90.1413 75.7514 93.2591 74.8267C93.3371 71.7315 92.5147 68.682 90.8949 66.0616C89.5074 64.1957 86.6209 63.2624 82.2357 63.2624C79.3237 63.0862 76.4136 63.6343 73.756 64.8584C71.7505 66.02 70.0633 67.6751 68.8481 69.6726C67.4864 71.8181 66.5358 73.2047 65.9704 73.9108C64.9595 74.7393 63.6585 75.1082 62.373 74.9315C60.7848 74.9624 59.2438 74.3831 58.0562 73.3092C56.8484 72.2732 56.1758 70.7297 56.2318 69.123C56.2715 66.2647 57.2482 63.5019 59.0067 61.2738C61.2844 58.4597 64.2681 56.3257 67.6406 55.0994C72.3159 53.3413 77.2795 52.5151 82.2614 52.6661C87.5007 52.4422 92.7341 53.2417 97.6789 55.0206C101.143 56.3752 103.953 59.0498 105.516 62.4771C107.217 66.7599 108.005 71.3619 107.828 75.9779V85.0043V93.2462C107.857 96.2562 108.324 99.2455 109.216 102.116C109.891 104.038 110.356 106.029 110.604 108.055C110.545 109.726 109.753 111.282 108.445 112.293C107.119 113.527 105.385 114.209 103.589 114.204C101.863 114.106 100.246 113.316 99.0918 112.006C97.2666 110.101 95.6788 107.974 94.3642 105.674L94.2354 105.726ZM93.3873 83.8276C90.2869 84.9116 87.1198 85.7858 83.9057 86.4443C79.7432 87.3598 76.8913 88.0139 75.298 88.4326C73.6182 88.9041 72.0639 89.7538 70.7497 90.9184C69.2632 92.2206 68.464 94.1586 68.5913 96.151C68.5726 98.3843 69.5109 100.515 71.1609 101.986C72.9736 103.587 75.3153 104.428 77.7133 104.341C80.5361 104.368 83.3233 103.695 85.8332 102.378C88.1035 101.277 90.0067 99.521 91.3063 97.3286C92.8896 93.7994 93.5787 89.9222 93.3104 86.0517L93.3873 83.8276Z" fill="white"/>
<mask id="mask0_1283_2318" style="mask-type:alpha" maskUnits="userSpaceOnUse" x="53" y="52" width="58" height="63">
<path fill-rule="evenodd" clip-rule="evenodd" d="M82.2582 52.8043C77.2771 52.6533 72.3128 53.4792 67.6375 55.2373C64.2644 56.4652 61.281 58.5981 59.0038 61.4131C57.2448 63.6405 56.2685 66.4034 56.2288 69.2618C56.1725 70.869 56.8458 72.4122 58.0532 73.4489C59.2416 74.5228 60.7822 75.1022 62.3707 75.0706C63.6555 75.2479 64.9561 74.8783 65.9666 74.0509C66.5324 73.344 67.4826 71.9574 68.8454 69.8122C70.0606 67.8142 71.747 66.1594 73.7529 64.9966C76.4108 63.7729 79.3209 63.2255 82.2321 63.4018C86.6173 63.4018 89.5049 64.3351 90.892 66.2007C92.5122 68.8204 93.3335 71.8711 93.2562 74.9657C90.1374 75.8912 87.2512 76.6759 84.5959 77.3218C81.9405 77.9662 78.7459 78.6727 75.0119 79.4402L67.9976 80.9317C63.9717 81.7286 60.3007 83.8091 57.5139 86.8717C54.9742 89.738 53.5974 93.477 53.6592 97.3365C53.6434 100.346 54.4544 103.3 55.998 105.867C57.6008 108.535 59.9068 110.693 62.6527 112.094C65.7597 113.68 69.1995 114.47 72.6739 114.397C76.5342 114.458 80.3694 113.738 83.9542 112.277C87.6422 110.611 91.0986 108.455 94.2325 105.867L94.3613 105.815C95.6752 108.114 97.2633 110.241 99.0892 112.146C100.243 113.456 101.86 114.247 103.585 114.344C105.382 114.35 107.116 113.668 108.442 112.434C109.75 111.423 110.541 109.867 110.6 108.195C110.353 106.17 109.888 104.178 109.213 102.256C108.322 99.3861 107.853 96.3964 107.825 93.3866V85.1441V76.1177C108.001 71.5011 107.214 66.8994 105.513 62.6157C103.951 59.1883 101.139 56.5143 97.6756 55.1592C93.2731 53.5748 88.6424 52.7675 83.9818 52.7675C83.4079 52.7675 82.8333 52.7794 82.2582 52.8043ZM71.1577 102.124C69.5077 100.653 68.5693 98.5232 68.5874 96.2896C68.4603 94.2968 69.2599 92.3584 70.7457 91.0566C72.0607 89.8923 73.6149 89.0426 75.2947 88.5708C76.8869 88.1528 79.7392 87.498 83.9028 86.5832C87.1155 85.9243 90.2829 85.0505 93.3833 83.9662L93.3071 86.1895C93.5748 90.0608 92.8856 93.9376 91.3026 97.4668C90.0035 99.6596 88.1003 101.415 85.8292 102.517C83.32 103.833 80.5322 104.507 77.7101 104.479C77.5956 104.483 77.4826 104.485 77.3699 104.485C75.0912 104.485 72.8835 103.65 71.1577 102.124Z" fill="white"/>
</mask>
<g mask="url(#mask0_1283_2318)">
<path fill-rule="evenodd" clip-rule="evenodd" d="M31.8643 140.411H132.391V34.7557H31.8643V140.411Z" fill="white"/>
</g>
</svg>
