<svg version="1.2" baseProfile="tiny-ps" xmlns="http://www.w3.org/2000/svg" viewBox="0 0 1518 1539" width="1518" height="1539">
	<title>despeg-svg</title>
	<style>
		tspan { white-space:pre }
		.shp0 { opacity: 0.302;fill: #550fed } 
		.shp1 { fill: #550fed } 
	</style>
	<g id="logo-color">
		<g id="D_blue_RGB">
			<g id="Group">
				<path id="Path" class="shp0" d="M0.05 1539.37L746.91 1539.42C1172.4 1539.42 1517.32 1194.71 1517.32 769.5C1517.32 344.31 1172.4 -0.4 746.91 -0.4L0.05 -0.36L0.05 1539.37Z" />
				<path id="Path" class="shp1" d="M3.63 -0.42C2.43 -0.42 1.25 -0.37 0.05 -0.37L0.05 1539.36C1.25 1539.37 2.43 1539.43 3.63 1539.43C429.12 1539.43 774.05 1194.72 774.05 769.5C774.05 344.29 429.12 -0.42 3.63 -0.42Z" />
			</g>
			<g id="Group-2">
				<path id="Shape" fill-rule="evenodd" class="shp1" d="M2520.36 320.3L2520.36 1086.43C2520.36 1089.7 2517.71 1092.35 2514.44 1092.35L2387.48 1092.35C2384.21 1092.35 2381.56 1089.68 2381.56 1086.43L2381.56 1028.17C2338.48 1077.83 2266.78 1108.21 2190.94 1108.21C1995.44 1108.21 1878.61 947.03 1878.61 791.2C1878.61 638.11 2006.56 474.19 2197.04 474.19C2274.63 474.19 2342.42 503.42 2381.56 553.04L2381.56 320.3C2381.56 317.03 2384.21 314.37 2387.48 314.37L2514.44 314.37C2517.71 314.37 2520.36 317.03 2520.36 320.3ZM2386.45 791.19C2386.45 690.57 2304.18 605.56 2206.81 605.56C2106.41 605.56 2024.73 688.85 2024.73 791.19C2024.73 893.56 2106.41 976.83 2206.81 976.83C2304.18 976.83 2386.45 891.82 2386.45 791.19Z" />
				<path id="Shape" fill-rule="evenodd" class="shp1" d="M3266.76 811.91L3266.76 835.1C3266.76 838.37 3264.11 841.01 3260.84 841.01L2776.65 841.01C2786.73 921.77 2861.9 984.11 2950.76 984.11C3015.71 984.11 3073.17 953.3 3116.94 894.99C3118.7 892.64 3121.96 891.93 3124.55 893.37L3231.98 953.15C3233.5 954 3234.57 955.47 3234.91 957.17C3235.26 958.88 3234.82 960.65 3233.74 962.01C3159.75 1055.06 3060.59 1106.97 2954.5 1108.2C2738.87 1108.2 2622.57 944.87 2622.57 791.19C2622.57 637.52 2738.87 474.19 2954.44 474.19C3084.13 474.19 3266.77 578.96 3266.76 811.91ZM2777.69 724.29L3103.84 724.29C3077.46 645.19 3015.74 598.26 2937.34 598.26C2859.57 598.26 2798.99 646.33 2777.69 724.29Z" />
				<path id="Path" class="shp1" d="M3692.87 740.25L3564.6 715.83C3515.48 707.24 3492.59 689.32 3492.59 659.44C3492.59 614.95 3545.52 590.94 3595.32 590.94C3647.3 590.94 3699.43 612.64 3750.21 655.43C3751.4 656.45 3753.01 656.93 3754.58 656.8C3756.16 656.64 3757.61 655.86 3758.61 654.63L3830.65 565.57C3831.67 564.3 3832.13 562.66 3831.92 561.05C3831.68 559.43 3830.8 557.97 3829.48 557.03C3748.98 499.74 3675.64 474.19 3591.66 474.19C3435.49 474.19 3353.8 574.14 3353.8 672.86C3353.8 769.49 3414.71 818.31 3571.04 847.04L3643.08 860.45C3690.89 869.25 3715.14 890.29 3715.14 922.95C3715.14 950.95 3675.51 991.46 3603.87 991.46C3542.38 991.46 3469.57 957.42 3422.66 906.74C3421.56 905.56 3420.01 904.88 3418.4 904.85C3416.7 904.78 3415.23 905.46 3414.1 906.6L3327.42 994.42C3326.26 995.59 3325.65 997.19 3325.72 998.83C3325.79 1000.49 3326.54 1002.02 3327.81 1003.09C3411.2 1073.81 3499.51 1108.2 3597.77 1108.2C3680.01 1108.2 3747.99 1084.47 3794.31 1039.58C3832.22 1002.85 3853.94 953.23 3853.94 903.42C3853.92 813.78 3801.24 760.4 3692.87 740.25Z" />
				<path id="Shape" fill-rule="evenodd" class="shp1" d="M4588.82 791.21C4588.82 944.3 4460.89 1108.21 4270.39 1108.21C4192.82 1108.21 4125.03 1078.99 4085.86 1029.37L4085.86 1290.16C4085.86 1293.45 4083.21 1296.09 4079.94 1296.09L3952.98 1296.09C3949.69 1296.09 3947.06 1293.43 3947.06 1290.16L3947.06 495.97C3947.06 492.7 3949.71 490.05 3952.98 490.05L4079.94 490.05C4083.23 490.05 4085.86 492.7 4085.86 495.97L4085.86 554.7C4132.46 502.68 4199.64 474.19 4276.49 474.19C4472 474.19 4588.81 635.37 4588.82 791.21ZM4080.99 791.2C4080.99 891.82 4163.25 976.83 4260.62 976.83C4361.01 976.83 4442.68 893.54 4442.68 791.2C4442.68 688.85 4361.01 605.58 4260.62 605.58C4163.25 605.58 4080.99 690.58 4080.99 791.2Z" />
				<path id="Shape" fill-rule="evenodd" class="shp1" d="M5304.14 811.91L5304.14 835.1C5304.14 838.37 5301.49 841.01 5298.22 841.01L4814.03 841.01C4824.13 921.77 4899.28 984.11 4988.16 984.11C5053.11 984.11 5110.57 953.3 5154.33 894.99C5156.1 892.64 5159.36 891.93 5161.95 893.37L5269.38 953.15C5270.9 954 5271.98 955.47 5272.3 957.17C5272.65 958.88 5272.22 960.65 5271.14 962.01C5197.15 1055.06 5097.99 1106.97 4991.9 1108.2C4776.26 1108.2 4659.97 944.87 4659.97 791.19C4659.97 637.52 4776.27 474.19 4991.83 474.19C5121.52 474.19 5304.15 578.96 5304.14 811.91ZM4815.09 724.29L5141.24 724.29C5114.86 645.19 5053.15 598.26 4974.74 598.26C4896.96 598.26 4836.39 646.33 4815.09 724.29Z" />
				<path id="Shape" fill-rule="evenodd" class="shp1" d="M6003.7 495.99L6003.7 1020.57C6003.7 1114.08 5970.36 1194.06 5907.32 1251.85C5849.59 1304.76 5772.03 1333.91 5688.93 1333.91C5590.57 1333.91 5495.76 1289.32 5435.29 1214.62C5434.26 1213.34 5433.79 1211.74 5434.01 1210.12C5434.23 1208.52 5435.08 1207.08 5436.41 1206.12L5540.18 1130.47C5541.43 1129.54 5543.03 1129.15 5544.59 1129.41C5546.15 1129.66 5547.54 1130.51 5548.46 1131.82C5573.57 1166.94 5627.8 1202.53 5682.79 1202.53C5774.02 1202.53 5872.2 1149.79 5872.2 1033.98L5872.2 1009.95C5816.89 1066.84 5756.01 1092.37 5676.69 1092.37C5531.19 1092.37 5383.9 986.83 5383.9 785.11C5383.9 581 5538.56 474.2 5691.34 474.2C5766.71 474.2 5828.95 500.94 5872.2 551.71L5872.2 495.97C5872.2 492.7 5874.84 490.06 5878.11 490.06L5997.75 490.06C6001.02 490.06 6003.68 492.7 6003.7 495.99ZM5872.2 783.87C5872.2 685.56 5796 605.58 5702.33 605.58C5607.31 605.58 5530.02 685.02 5530.02 782.66C5530.02 885.97 5602.48 960.97 5702.33 960.97C5799.17 960.97 5872.2 884.85 5872.2 783.87Z" />
				<path id="Shape" fill-rule="evenodd" class="shp1" d="M6729.29 495.97L6729.29 1086.43C6729.29 1089.7 6726.64 1092.35 6723.37 1092.35L6596.41 1092.35C6593.12 1092.35 6590.49 1089.68 6590.49 1086.43L6590.49 1028.17C6547.42 1077.83 6475.71 1108.21 6399.87 1108.21C6204.37 1108.21 6087.54 947.03 6087.54 791.2C6087.54 638.11 6215.47 474.19 6405.97 474.19C6483.56 474.19 6551.33 503.42 6590.49 553.04L6590.49 495.97C6590.49 492.7 6593.13 490.06 6596.41 490.06L6723.37 490.06C6726.64 490.06 6729.29 492.7 6729.29 495.97ZM6595.36 791.19C6595.36 690.57 6513.11 605.56 6415.74 605.56C6315.34 605.56 6233.65 688.85 6233.65 791.19C6233.65 893.56 6315.34 976.83 6415.74 976.83C6513.11 976.83 6595.36 891.82 6595.36 791.19Z" />
				<path id="Path" class="shp1" d="M7186.73 493.43C7167.43 481.02 7141.58 474.19 7113.95 474.19C7067.41 474.19 7025.78 499.19 7001.45 540.59L7001.45 495.96C7001.45 492.69 6998.8 490.05 6995.52 490.05L6875.88 490.05C6872.6 490.05 6869.96 492.69 6869.96 495.96L6869.96 1086.43C6869.96 1089.7 6872.59 1092.34 6875.88 1092.34L7002.84 1092.34C7006.11 1092.34 7008.77 1089.71 7008.77 1086.43L7008.77 696.04C7008.77 642.04 7051 612.89 7090.76 612.89C7101.68 612.89 7123.72 619.93 7134.65 628.68C7136.15 629.88 7138.13 630.28 7139.96 629.75C7141.81 629.22 7143.28 627.85 7143.92 626.05L7189.09 500.4C7190.03 497.81 7189.06 494.92 7186.73 493.43Z" />
			</g>
		</g>
	</g>
</svg>