<svg version="1.2" xmlns="http://www.w3.org/2000/svg" viewBox="0 0 185 182" width="185" height="182"><style>.a{fill:#191e3b}.b{fill:#fddb32}</style><path class="a" d="m252.7 16.3c-5.8 0-10.5 4.7-10.5 10.5v128c0 5.8 4.7 10.5 10.5 10.5h80.5c1.5 0 2.7-1.2 2.7-2.8v-14.6c0-1.6-1.2-2.8-2.7-2.8h-68.5v-46.8h61.6c1.5 0 2.7-1.2 2.7-2.7v-13.9c0-1.5-1.2-2.8-2.7-2.8h-61.6v-42.9h68.5c1.5 0 2.7-1.2 2.7-2.7v-14.2c0-1.6-1.2-2.8-2.7-2.8z"/><path class="a" d="m524.4 53.6c-19.2 0-31 6.6-39 17.6v-11.5c0-1.5-1.2-2.7-2.8-2.7h-16.5c-1.5 0-2.8 1.2-2.8 2.7v139.8c0 1.5 1.3 2.7 2.8 2.7h16.8c1.6 0 2.8-1.2 2.8-2.7v-47.9c7.4 10.7 19.3 17 38.7 17 32.6 0 52.8-25.8 52.8-57.5 0-31.8-19.8-57.5-52.8-57.5zm-4.7 18.5c23.4 0 34.9 17.4 34.9 39 0 21.5-11.5 38.9-34.9 38.9-23.5 0-35-17.4-35-38.9 0-21.6 11.5-39 35-39z"/><path class="a" d="m851.4 57h16.7c1.5 0 2.7 1.2 2.7 2.7v102.8c0 1.6-1.2 2.8-2.7 2.8h-16.7c-1.5 0-2.7-1.2-2.7-2.8v-102.8c0-1.5 1.2-2.7 2.7-2.7z"/><path class="a" d="m851.2 16.3h17.1c1.5 0 2.8 1.2 2.8 2.7v17.1c0 1.6-1.3 2.8-2.8 2.8h-17.1c-1.5 0-2.8-1.2-2.8-2.8v-17.1c0-1.5 1.3-2.7 2.8-2.7z"/><path class="a" d="m763.7 168.6c19.2 0 31.1-6.6 39-17.6v11.5c0 1.6 1.3 2.8 2.8 2.8h16.6c1.5 0 2.7-1.2 2.7-2.8v-143.4c0-1.6-1.2-2.8-2.7-2.8h-16.9c-1.5 0-2.7 1.2-2.7 2.8v52c-8-10.3-19.4-17.5-38.8-17.5-32.5 0-52.8 25.8-52.8 57.5 0 31.8 19.9 57.5 52.8 57.5zm4.8-18.5c-23.5 0-35-17.5-35-39 0-21.5 11.5-38.9 35-38.9 23.4 0 34.9 17.4 34.9 38.9 0 21.5-11.5 39-34.9 39z"/><path class="a" d="m942.7 53.7c-33 0-52.8 25.7-52.8 57.4 0 31.8 19.8 57.5 52.8 57.5 19.2 0 31.1-6.6 39-17.6v11.5c0 1.6 1.2 2.8 2.8 2.8h16.5c1.6 0 2.8-1.2 2.8-2.8v-51.4-51.4c0-1.5-1.2-2.7-2.8-2.7h-16.5c-1.6 0-2.8 1.2-2.8 2.7v11.5c-7.9-10.9-19.8-17.5-39-17.5zm4.7 18.5c23.5 0 35 17.4 35 38.9 0 21.5-11.5 39-35 39-23.4 0-34.9-17.5-34.9-39 0-21.5 11.5-38.9 34.9-38.9z"/><path class="a" d="m353.7 57c-2.4 0-2.8 1.8-1.8 3.3l35.3 48.3-38.7 53.3c-1.1 1.5-0.6 3.4 1.7 3.4h19.1c1.7 0 2.5-0.6 3.1-1.4l26.4-38.9 27.5 38.9c0.5 0.8 1.4 1.4 3 1.4h19.9c2.3 0 2.7-1.9 1.7-3.4l-39-53.3 35.1-48.3c1.1-1.5 0.6-3.3-1.7-3.3h-18.8c-1.6 0-2.5 0.5-3 1.3l-23.2 34.1-23.9-34.1c-0.6-0.8-1.4-1.3-3.1-1.3z"/><path class="a" d="m644.1 53.6c-33.1 0-53.1 23.8-53.1 57.5 0 37.1 23.6 57.5 53.1 57.5 35.7 0 49.8-21 50.6-21.8 0.9-0.9 0.6-2.6-0.1-3.3l-10.4-10.1c-0.7-0.8-2.2-0.9-3.2 0.1-0.7 0.8-13.3 16.6-33.8 16.6-21.9 0-32.7-13.4-34.1-33.1h81.5c2.5 0 2.6-2.2 2.6-3.7 0.2-40.1-23.1-59.7-53.1-59.7zm0.1 17.4c20 0 28.4 12.1 30.2 29.3h-60.5c2.3-16.9 11.2-29.3 30.3-29.3z"/><path class="b" d="m41.1 1h105.2c20.7 0 37.3 16.6 37.3 37.3v105.3c0 20.6-16.6 37.2-37.3 37.2h-105.2c-20.7 0-37.3-16.6-37.3-37.2v-105.3c0-20.7 16.6-37.3 37.3-37.3z"/><path class="a" d="m54.1 33.2c-1.7 0-2.8 0.4-3.6 1.3l-18 17.9c-0.4 0.4-0.5 0.8-0.5 1.3 0 1 0.8 1.8 1.7 1.8h77.9l-47.8 47.9c-1 0.9-1.5 1.5-1.5 3.3v12.6c0 0.8 0.3 1.4 0.8 1.9 0.5 0.5 1.2 0.9 1.9 0.9h12.6c1.9 0 2.4-0.6 3.4-1.5l47.9-47.9v77.9c0 1 0.8 1.8 1.7 1.8 0.5 0 1-0.2 1.3-0.5l18-18c0.9-0.9 1.2-1.9 1.2-3.6v-85.1c0-1.6-0.3-3.1-0.9-4.6-0.6-1.4-1.5-2.8-2.6-3.9-1.1-1.1-2.4-2-3.9-2.6-1.4-0.6-3-0.9-4.6-0.9z"/><path class="a" d="m38.8 125.6h17.3c1.4 0 2.6 1.2 2.6 2.6v17.4c0 1.4-1.2 2.6-2.6 2.6h-17.3c-1.4 0-2.6-1.2-2.6-2.6v-17.4c0-1.4 1.2-2.6 2.6-2.6z"/></svg>